<svg width="483" height="90" viewBox="0 0 483 90" fill="none" xmlns="http://www.w3.org/2000/svg">
<path d="M37.5422 70.1148C34.4314 71.8981 30.5682 71.8981 27.4582 70.1148L20.035 65.8575L20.071 87.8714C20.0721 88.6294 19.6627 89.3362 19.0016 89.7153C18.3408 90.0952 17.5199 90.0948 16.8592 89.7149L5.03402 82.9189C1.92909 81.1342 0 77.812 0 74.2487V22.8732C0 19.3061 1.93213 15.9819 5.04216 14.1984L5.05062 14.1937C8.13194 12.4305 11.9591 12.4321 15.0397 14.1984L20.0419 17.0672L20.0783 39.8342C20.0807 41.6797 21.0816 43.3997 22.6898 44.324L48.7573 59.3027C50.2842 60.1805 52.0051 60.709 53.6427 60.8809L37.5422 70.1148ZM65 48.5844C65 52.1516 63.0682 55.4753 59.9528 57.2623C56.8665 59.0324 53.0328 59.0306 49.9479 57.2581L44.8756 54.3435V31.5811C44.8756 29.7311 43.8735 28.0075 42.2606 27.0824L16.2287 12.1529C14.7104 11.282 13.0458 10.7576 11.3514 10.5799L27.4691 1.33617C30.352 -0.316946 33.8843 -0.435434 36.8616 0.976832C37.0543 1.07115 37.2447 1.17177 37.4322 1.27929L59.9582 14.1984C63.0682 15.9819 65 19.3057 65 22.8732V48.5844Z" fill="#615BD2"/>
<path d="M449.246 69.5279V20.6904H458.167V48.9511L468.716 36.9696H479.46L466.567 51.6208L482.456 69.5279H471.451L458.167 54.5511V69.5279H449.246Z" fill="white"/>
<path d="M446.186 57.0903C444.428 64.5787 438.502 70.2438 429.516 70.2438C419.619 70.2438 412.391 62.6903 412.391 53.2484C412.391 43.8065 419.619 36.2529 429.516 36.2529C438.502 36.2529 444.428 41.9181 446.186 49.4065H436.94C435.702 46.4762 433.293 44.3274 429.516 44.3274C424.828 44.3274 421.377 47.8437 421.377 53.2484C421.377 58.6531 424.828 62.1694 429.516 62.1694C433.293 62.1694 435.702 60.0205 436.94 57.0903H446.186Z" fill="white"/>
<path d="M376.201 53.2484C376.201 44.0018 382.843 36.2529 391.504 36.2529C395.997 36.2529 399.448 38.532 400.88 40.6157V36.9692H409.801V69.5275H400.88V65.881C399.448 67.9647 395.997 70.2438 391.504 70.2438C382.843 70.2438 376.201 62.4949 376.201 53.2484ZM401.597 53.2484C401.597 48.1693 398.276 44.3925 393.392 44.3925C388.508 44.3925 385.187 48.1693 385.187 53.2484C385.187 58.3275 388.508 62.1042 393.392 62.1042C398.276 62.1042 401.597 58.3275 401.597 53.2484Z" fill="white"/>
<path d="M375.363 69.2019C373.93 69.6578 372.172 69.9182 369.698 69.9182C362.795 69.9182 357.26 66.0763 357.26 58.1321V44.7832H350.684V36.9692H357.26V27.918H366.181V36.9692H375.363V44.7832H366.181V56.374C366.181 60.3461 367.874 61.9089 371.716 61.9089C373.149 61.9089 374.321 61.7135 375.363 61.3228V69.2019Z" fill="white"/>
<path d="M316.576 55.2022H326.018C326.669 59.3697 330.251 61.5837 334.353 61.5837C338.13 61.5837 340.93 59.8255 340.93 56.8953C340.93 54.4208 339.172 52.5325 334.744 51.2952L329.86 49.8627C322.567 47.7789 317.813 43.2208 317.748 36.1882C317.683 27.6579 323.999 22.5137 333.246 22.5137C343.209 22.5137 349.135 29.6765 349.46 36.5789H340.083C339.041 32.6719 335.981 31.2393 333.246 31.2393C329.925 31.2393 327.32 32.8021 327.255 35.537C327.19 38.4021 329.274 39.9649 333.051 41.0719L338.455 42.5696C345.944 44.6533 350.437 49.4069 350.437 56.5697C350.437 64.4488 344.055 70.3093 334.353 70.3093C323.283 70.3093 316.967 62.8209 316.576 55.2022Z" fill="white"/>
<path d="M314.292 68.2019C312.86 68.6578 311.102 68.9182 308.627 68.9182C301.725 68.9182 296.19 65.0763 296.19 57.1321V43.7832H289.613V35.9692H296.19V26.918H305.111V35.9692H314.292V43.7832H305.111V55.374C305.111 59.3461 306.804 60.9089 310.646 60.9089C312.079 60.9089 313.251 60.7135 314.292 60.3228V68.2019Z" fill="white"/>
<path d="M290.255 56.0903C288.496 63.5787 282.571 69.2438 273.585 69.2438C263.687 69.2438 256.459 61.6903 256.459 52.2484C256.459 42.8065 263.687 35.2529 273.585 35.2529C282.571 35.2529 288.496 40.9181 290.255 48.4065H281.008C279.771 45.4762 277.361 43.3274 273.585 43.3274C268.896 43.3274 265.445 46.8437 265.445 52.2484C265.445 57.6531 268.896 61.1694 273.585 61.1694C277.361 61.1694 279.771 59.0205 281.008 56.0903H290.255Z" fill="white"/>
<path d="M223.869 54.8536V35.9697H232.79V53.3559C232.79 58.2396 234.483 61.1048 238.325 61.1048C242.297 61.1048 245.032 58.1745 245.032 51.8582V35.9697H253.953V68.5281H245.032V64.8164C243.339 67.4211 240.279 69.2443 236.111 69.2443C228.232 69.2443 223.869 63.5141 223.869 54.8536Z" fill="white"/>
<path d="M185.988 52.2488C185.988 43.0022 192.63 35.2533 201.291 35.2533C205.784 35.2533 209.235 37.5324 210.668 39.6161V19.6904H219.588V68.5279H210.668V64.8814C209.235 66.9651 205.784 69.2442 201.291 69.2442C192.63 69.2442 185.988 61.4953 185.988 52.2488ZM211.384 52.2488C211.384 47.1697 208.063 43.3929 203.179 43.3929C198.295 43.3929 194.974 47.1697 194.974 52.2488C194.974 57.3279 198.295 61.1046 203.179 61.1046C208.063 61.1046 211.384 57.3279 211.384 52.2488Z" fill="white"/>
<path d="M183.638 52.2484C183.638 61.7554 175.954 69.2438 166.512 69.2438C157.07 69.2438 149.387 61.7554 149.387 52.2484C149.387 42.7413 157.07 35.2529 166.512 35.2529C175.954 35.2529 183.638 42.7413 183.638 52.2484ZM158.373 52.2484C158.373 57.2624 161.824 60.9089 166.512 60.9089C171.201 60.9089 174.587 57.2624 174.587 52.2484C174.587 47.2344 171.201 43.5879 166.512 43.5879C161.824 43.5879 158.373 47.2344 158.373 52.2484Z" fill="white"/>
<path d="M128.99 68.5281V35.9698H137.911V41.1791C139.018 37.9884 142.339 35.5791 145.986 35.5791C146.897 35.5791 147.874 35.6442 148.981 35.9698V45.021C147.614 44.5652 146.376 44.3047 144.944 44.3047C140.711 44.3047 137.911 47.6257 137.911 52.9653V68.5281H128.99Z" fill="white"/>
<path d="M110.368 22.2959C119.744 22.2959 126.582 29.068 126.582 37.8588C126.582 46.6495 119.744 53.4217 110.368 53.4217H104.442V68.5287H95V22.2959H110.368ZM110.237 44.5658C114.535 44.5658 117.4 41.6356 117.4 37.8588C117.4 34.082 114.535 31.1518 110.237 31.1518H104.442V44.5658H110.237Z" fill="white"/>
</svg>
