<svg width="24" height="24" viewBox="0 0 24 24" fill="none" xmlns="http://www.w3.org/2000/svg">
<path d="M13.8187 18.6973C13.0051 19.1728 11.9948 19.1728 11.1814 18.6973L9.23992 17.562L9.24933 23.4324C9.24964 23.6345 9.14254 23.823 8.96964 23.9241C8.79683 24.0254 8.58213 24.0253 8.40934 23.924L5.31659 22.1117C4.50453 21.6358 4 20.7499 4 19.7996V6.09952C4 5.14829 4.50533 4.26184 5.31872 3.78623L5.32093 3.78499C6.12682 3.3148 7.12777 3.31522 7.93346 3.78623L9.24172 4.55124L9.25125 10.6225C9.25187 11.1146 9.51364 11.5733 9.93425 11.8197L16.7519 15.8141C17.1513 16.0481 17.6013 16.1891 18.0296 16.2349L13.8187 18.6973ZM21 12.9559C21 13.9071 20.4948 14.7934 19.68 15.2699C18.8728 15.742 17.8701 15.7415 17.0633 15.2688L15.7367 14.4916V8.42164C15.7367 7.92828 15.4746 7.46866 15.0528 7.22198L8.24443 3.24078C7.84734 3.00853 7.41197 2.8687 6.96883 2.8213L11.1842 0.356312C11.9382 -0.0845189 12.8621 -0.116116 13.6407 0.260489C13.6911 0.28564 13.7409 0.312473 13.79 0.341145L19.6814 3.78623C20.4948 4.26184 21 5.14818 21 6.09952V12.9559Z" fill="#615BD2"/>
</svg>
