<svg width="24" height="24" viewBox="0 0 24 24" fill="none" xmlns="http://www.w3.org/2000/svg">
<path d="M3 23V1H12.7423C14.1237 1 15.3711 1.30383 16.4845 1.91142C17.6186 2.51901 18.5052 3.35712 19.1443 4.42574C19.7835 5.4733 20.1031 6.66764 20.1031 8.00854C20.1031 9.39141 19.7835 10.6381 19.1443 11.7485C18.5052 12.8381 17.6288 13.6972 16.5154 14.3257C15.4021 14.9543 14.1443 15.2686 12.7423 15.2686H8.01027V23H3ZM15 23L9.49483 13.0686L14.8763 12.2829L21 23H15ZM8.01027 11.1828H12.2783C12.8144 11.1828 13.2784 11.0676 13.6701 10.8371C14.0825 10.5857 14.3917 10.24 14.5979 9.79997C14.8247 9.36 14.9381 8.85714 14.9381 8.29145C14.9381 7.72569 14.8144 7.23332 14.567 6.81427C14.3196 6.3743 13.9588 6.03906 13.4846 5.80854C13.0309 5.5781 12.4742 5.46288 11.8144 5.46288H8.01027V11.1828Z" fill="black"/>
</svg>
